<svg version="1" xmlns="http://www.w3.org/2000/svg" width="4026.667" height="4026.667" viewBox="0 0 3020.000000 3020.000000"><path d="M1490.2 43.7c-38.6 53.5-57.8 80.4-86.3 120.3-17.9 25-35.4 49.7-38.9 54.8-26.4 37.9-34.2 47.2-53.5 63.9-10.1 8.7-26.4 20.3-37.5 26.5-2.5 1.4-19.6 10.2-38 19.5-18.4 9.4-35.1 17.9-37 19-1.9 1.1-8.4 4.6-14.5 7.8-10.6 5.6-30.7 16.7-38.9 21.4-2.2 1.3-6 3.4-8.5 4.8-2.5 1.3-6.2 3.4-8.1 4.5-32.1 18.8-47.4 28-72 43.6-27 17.2-72.2 47.8-72.8 49.4-.2.4-.8.8-1.3.8-.6 0-1.5.4-2.2 1-.7.5-11.3 8.5-23.7 17.7-19.9 14.8-53.8 41.4-58 45.4-.8.8-3.7 3.1-6.3 5.3-2.7 2.1-11.7 9.7-20 16.8-8.4 7.1-16.1 13.7-17.2 14.7-3.5 3-30 26.6-34.4 30.7-2.4 2.1-5.5 5-7 6.3-6 5.4-37.1 35.2-44.5 42.7-35.4 35.7-59.2 62.5-90.5 102-13.9 17.5-40.6 56.4-53.8 78.4-34.8 57.9-66 128.9-81.9 186.5-4 14.5-10.3 42.7-11.8 53-.4 2.3-.8 5.1-1.1 6.4-.2 1.3-.7 4.9-1 8-.3 3.1-.8 6.5-1 7.7-3.3 15.7-2.4 82 1.4 100.4.9 4.1-.2 10-2.4 13.4-1 1.5-6.9 5-14.8 8.9-41.8 20.6-75.2 36.8-108.2 52.7-7.7 3.7-21.1 10.2-29.8 14.4-8.6 4.2-16.1 7.6-16.6 7.6-.6 0-8.6-21.7-9.8-26.5-.1-.6-2-8-4.2-16.5-2.1-8.5-4.2-17.5-4.6-20-.3-2.5-.8-5.2-1-6-.5-1.9-1.4-7.2-3-18-1.3-8.6-1.6-11.9-3-25.7-2.1-21.4-3.4-54.8-3.6-94.1-.1-15-.6-27.5-1-27.7-1.3-.9-15.2 6-18.9 9.3-1.9 1.7-4.8 4.3-6.5 5.7-1.6 1.5-12.2 10.6-23.5 20.3-23 19.8-21.9 18.9-42.5 37.4-53.1 47.7-80.3 82.4-100.9 128.9-6.5 14.6-13.2 38.6-16.2 57.9-2 12.9-2.5 40.7-1.1 55.3.8 8.5 3.2 23.2 4.7 28.7 3.5 13.1 6.6 31 8.8 51 1.6 14.3.4 46.3-2.3 62-.2 1.4-.7 4.5-1 7-.9 6.8-5 25.1-8.3 37.5-1.7 6-5.8 21.3-9.2 34-6.6 24.5-8.7 32.5-14.4 55.5-2 8-4.1 15.8-4.6 17.5-.5 1.6-2.3 8.8-3.9 16-1.7 7.1-3.8 15.5-4.6 18.5-.9 3-2.9 11.3-4.6 18.5-1.6 7.1-3.1 13.7-3.4 14.5-.2.8-1.1 4.6-2 8.5-.9 3.8-3.1 13.3-5 21-1.9 7.7-3.6 15.1-3.9 16.5-.2 1.4-2.3 10.1-4.5 19.5-3.5 14.3-5.8 24.2-7.6 32.5-.1.8-.8 3.3-1.3 5.5-.6 2.2-1.3 5.1-1.6 6.5-.2 1.4-1.3 6.3-2.5 11-3.4 14.3-8 33.7-8.5 36.2-.4 2-17.2 71.5-18 74.3-.2.5-.6 2.3-1.1 4-.4 1.6-4.9 17.6-10 35.5-8.3 29-9.3 33.3-9.2 40l.2 7.5 6 2.2c3.3 1.2 8.9 3.2 12.5 4.6 3.6 1.3 13.9 5.2 23 8.7 9.1 3.4 18.1 6.7 20 7.4 1.9.7 21.5 8.1 43.5 16.3 22 8.3 54 20.4 71 26.8 36.1 13.6 48.3 18.2 93.5 35.5 40.5 15.5 46.3 18.9 107 61.7 14.1 10 28.8 20.4 43.5 30.7 8.8 6.2 29.3 20.6 45.5 32.1s31.8 22.4 34.5 24.3c13.2 9.2 18 12.7 18.5 13.2.3.3 3.9 2.7 8 5.5 4.1 2.7 7.7 5.2 8 5.5.3.3 7.3 5.3 15.5 11 8.3 5.7 18.9 13.1 23.6 16.5 9.1 6.4 47.8 33.1 71.9 49.5 8 5.5 15 10.3 15.5 10.7.6.5 5.3 3.7 10.5 7.3 5.2 3.5 12.1 8.2 15.3 10.4 3.2 2.3 6.9 4.8 8.1 5.6 1.3.8 16.1 10.9 32.7 22.4 16.7 11.5 37.6 25.9 46.4 31.9 13.9 9.6 22.2 15.2 46.1 31.7 2.8 1.9 10 6.8 16 10.9 6 4.1 14.3 9.7 18.4 12.6 19.3 13.3 45.2 31.1 100.3 68.8 74.6 51.1 145.9 100.1 149.7 102.7 9.5 6.7 53 36.4 62.5 42.8 5.5 3.7 10.5 7.2 11.1 7.7.6.6 4.9 3.5 9.5 6.5s8.6 5.7 8.9 6c.3.4 9 6.4 19.5 13.6 18.3 12.5 22 15 46.5 31.9 6.3 4.3 15.1 10.4 19.5 13.4 4.4 2.9 11.4 7.7 15.5 10.6 4.1 2.9 21.2 14.6 38 26.2 16.8 11.5 33.4 23 37 25.5 3.6 2.4 11.5 7.9 17.5 12 24.5 16.8 62.1 42.7 63 43.5.6.5 7.5 5.2 15.5 10.5 18.9 12.6 26.7 15.3 38.9 13.3 8.7-1.3 12.9-4 73.9-46.4 8.4-5.8 20.3-14.1 26.5-18.3 6.1-4.3 14.9-10.4 19.5-13.5 4.6-3.2 9.1-6.3 10-6.8a34 34 0 0 0 3-2.3c.7-.6 2.3-1.7 3.5-2.3 1.1-.7 2.6-1.6 3.1-2.1.6-.5 7.9-5.6 16.1-11.3 8.3-5.7 20-13.8 26-18 9-6.2 28.6-19.8 35.6-24.6.9-.6 7.4-5.1 14.5-10s13.4-9.2 13.9-9.7c.6-.4 12-8.4 25.5-17.6 30.2-20.9 30.4-21 31-21.6.3-.3 3.7-2.7 7.5-5.2 6.9-4.5 58.6-40.3 115-79.5 9.9-6.9 21.6-14.9 26-17.9 4.4-2.9 12.4-8.4 17.7-12.1 19.1-13.3 32.6-22.6 45.2-31.3 6.9-4.8 47.4-32.8 60.1-41.5 5.5-3.9 17.3-11.9 26-18 8.8-6 19.4-13.3 23.5-16.2 4.1-2.8 12.7-8.7 19-13.1 18.4-12.6 71.4-49.3 84.5-58.4 6.5-4.6 18.5-12.8 26.5-18.2 8-5.5 14.7-10.2 15-10.5.3-.3 1.2-1.1 2.1-1.6 2-1.2.8-.4 39.9-27.4 17.9-12.4 36.8-25.4 42-29 5.2-3.5 13.8-9.5 19-13.1 5.2-3.7 14-9.7 19.5-13.5 5.5-3.8 12.7-8.7 16-11 9.8-6.9 27-18.7 43.5-30 8.5-5.8 20.5-14 26.5-18.2 6.1-4.2 20-13.7 31-21.1 18.5-12.5 50.6-34.7 60-41.4 9.9-7 61.1-45.4 62.5-46.8 2.3-2.3 29.8-20.3 42.6-27.8 15.3-9 57.5-30.2 60-30.2.3 0 2.6-.9 5.1-2.1 2.5-1.1 11.8-4.9 20.7-8.4 26.3-10.3 59.8-23.6 64.1-25.5 2.2-.9 6.5-2.7 9.5-3.8 8.5-3.2 17-6.8 17.7-7.6.3-.3 1.2-.6 2-.6.7 0 3.2-.9 5.6-1.9 2.3-1.1 20.4-8.5 40.2-16.6 19.8-8 38.5-15.7 41.5-17 3-1.3 14-5.8 24.5-10 25.6-10.4 29-12 36.2-17.1 10.3-7.4 12.3-14 11.7-38.9-.4-17.6-1.3-23.1-6.8-41-9.9-32-11.8-38.3-13.1-42-1.8-5.4-5.5-17.2-10.5-34-2.3-7.7-4.5-14.9-5-16-.9-2.3-10.9-34.7-11.5-37.3-.2-.9-2.2-7.3-4.4-14.2-2.2-6.9-6-19.3-8.6-27.5-2.5-8.3-6.8-22-9.5-30.5s-5.6-17.8-6.4-20.5c-.8-2.8-4.6-15.1-8.4-27.5-10.3-33.1-23.6-75.9-27.6-89-1.9-6.3-5.5-18-8-26-2.4-8-6.1-19.9-8.1-26.5-2-6.6-6.6-21.7-10.2-33.5-6.1-20-6.6-22.3-6.9-32.5-.4-12.4.4-17 6.7-36.5 4.5-14.2 8.7-30.1 10.5-39.4.2-1.6.6-3.2.8-3.5.2-.3.7-2.6 1-5.1.3-2.5.8-5.4 1-6.6.2-1.2.7-4.5 1.1-7.4.4-2.9.8-6.2 1-7.2 2.3-11.6 2.2-49.7-.1-65.8-2.9-19.9-5.8-32.4-11.6-49.5-25.5-75.4-80.8-143-167.3-204.6-15-10.7-13.6-9.9-19.4-10.5l-5-.5-.1 34.3c0 18.9-.2 38.6-.5 43.8-.7 15.9-1.6 30.3-2 34-.2 1.9-.7 6.2-1 9.5-.6 6.6-1.4 13.6-2 17.5-.2 1.4-.7 4.5-1 7-1.9 14.1-7.1 38.3-11.4 53.6-4.3 15.2-11.7 36.4-13.1 37.8-.9.9-5-1-49-23.6-32.4-16.7-49.2-24.3-70-31.8-23.5-8.5-36-15.4-47.3-26.4-9.8-9.5-16.8-21.8-21.2-37.1-2.3-7.9-3.1-12.5-5-26.5-.2-1.9-.7-8.2-1-14-.3-5.8-.7-13-1-16-1.4-16.8-2.4-27.1-3-31-.2-1.4-.7-4.5-1-7-1-7.4-3.4-23.3-4-26.5-.4-1.7-1.2-6.2-2-10-.8-3.9-1.6-8.1-1.9-9.5-2.9-15.3-11.1-45.5-17.8-66-16.7-51.3-37.2-96-68.5-150.1-12.9-22.2-34.6-54.9-53.3-80.2-7-9.5-18.1-23.9-19-24.7-.4-.3-1.3-1.4-2.1-2.6-.8-1.1-3.2-4.3-5.4-6.9-6.8-8.2-26.8-32-27.4-32.5-.3-.3-2.6-2.8-5-5.5-23-25.9-62.4-65.5-88.2-88.6-1.5-1.3-4.4-4-6.5-5.9-2.2-1.9-8.8-7.8-14.9-13-6-5.2-11.2-9.7-11.5-10-.3-.3-3.2-2.8-6.5-5.5-3.3-2.8-6.9-5.8-8-6.7-25.7-21.4-91.9-72.1-102.3-78.3-.9-.6-1.9-1.3-2.2-1.6-.3-.3-3.9-2.9-8-5.7-4.1-2.9-10.1-7-13.2-9.2-3.2-2.2-6.2-4-6.7-4s-1.1-.4-1.3-.8c-.8-2-45.8-29.5-75.5-46-29.3-16.4-39.4-21.7-93.8-49.7-26.1-13.4-45.3-23.4-62.5-32.3-35.6-18.5-58.8-34.8-80.5-56.6-13.4-13.4-21.7-24-38.6-49.3-7.1-10.6-16.5-24.5-20.9-30.8-4.4-6.3-11.5-16.6-15.8-22.8-6.7-9.6-23.2-32.8-27.8-39.2-2.4-3.3-27.8-38.8-29.4-41.1-.8-1.2-3.5-5-5.9-8.5-2.5-3.5-4.7-6.6-5.1-6.9-.3-.3-2.6-3.4-5.2-7-4.5-6.3-24.6-28-26-28-.3 0-5.1 6.2-10.6 13.7zm31.3 864.7c2.9.9 11.6 4.6 19.2 8.2 7.6 3.6 17 8.1 20.8 9.9 3.9 1.8 13.3 6.3 21 10 7.7 3.7 17.6 8.4 22 10.5 4.4 2.1 13.4 6.3 20 9.5s15.6 7.4 20 9.5c4.4 2.1 13.4 6.3 20 9.5 11.5 5.5 21.4 10.2 43 20.5 5.5 2.6 14.7 7 20.5 9.8 5.8 2.7 15 7.1 20.5 9.7 5.5 2.6 16.9 8.1 25.4 12.1 8.4 4.1 15.4 7.4 15.6 7.4.1 0 8.1 3.8 17.6 8.4 9.6 4.6 19.9 9.5 22.9 10.9 3 1.4 11.8 5.5 19.5 9.2 7.7 3.7 17.6 8.4 22 10.5 4.4 2.1 13.9 6.6 21 10 7.2 3.4 17.1 8.1 22 10.5 5 2.3 13.4 6.3 18.8 8.9 5.3 2.5 13.9 6.6 19 9 5 2.4 14.4 6.8 20.7 9.8 6.3 3.1 15.3 7.4 20 9.6 4.7 2.2 18.2 8.6 30 14.2s25.6 12.1 30.5 14.5c5 2.3 13.7 6.5 19.5 9.2 12.7 6.1 25.5 12.2 45.9 21.9 8.4 4.1 15.5 7.4 15.6 7.4.2 0 7.9 3.7 17.2 8.1 19.6 9.4 31.6 15.2 32.3 15.4.3.1 5.9 2.8 12.5 5.9 13.3 6.4 26.8 12.9 39 18.6 4.4 2.1 13.9 6.6 21 10 7.2 3.4 15.7 7.5 19 9 3.3 1.5 12.8 6 21 10 8.3 4 18.4 8.8 22.5 10.7 4.1 2 14.4 6.9 22.8 10.9 8.5 4.1 15.5 7.4 15.7 7.4.1 0 8.1 3.8 17.6 8.4 17.6 8.4 28.9 13.8 45.4 21.6 5 2.4 13.7 6.5 19.5 9.3 5.8 2.7 14.6 6.9 19.5 9.2 14.6 6.9 30.3 14.4 41 19.5 40.9 19.5 63.8 30.4 84 40 36.2 17 78.5 38 89 44 2.2 1.3 6.5 3.7 9.5 5.3 11.4 6.3 29 17.8 38.5 25.2 8.4 6.6 27.5 25.9 27.5 27.9 0 .2 1.6 3 3.5 6.2s4.4 8.3 5.6 11.3c1.1 3.1 2.7 6.9 3.4 8.6 1.5 3.4 5.1 12.6 10.1 25.8 1.9 5.1 3.8 10.1 4.4 11.2 2.3 5.2 25 68.7 42 118 9.9 28.9 17.9 51.6 18.5 52.4 1.5 2.5 9.8 2.4-227 2.5h-207l-4.2-2.2c-5.6-2.9-8.7-7.2-11.3-15.7-6.6-21.4-12.7-31.4-26-42.6-3.6-3-13.6-8.4-20-10.8-12.8-4.7-17.8-5-110.8-5-48.1 0-87.6-.1-87.8-.4-.2-.2 1.4-6.4 3.7-13.8 2.2-7.4 5.1-17 6.4-21.4 1.3-4.4 4.2-14.1 6.5-21.5s6-19.4 8.2-26.5c2.2-7.2 4.4-14.4 4.9-16 .6-1.7 1.2-3.7 1.4-4.5 1-3.6 6.5-20.8 7.7-24.1 1.9-5.2 5.3-9 9.3-10.4 2.6-.8 16.2-1.2 49.1-1.4 51.6-.2 46.8-1.1 43.9 8.5-.8 2.7-3 10.7-5 17.9-1.9 7.1-4 14.6-4.5 16.5-4.7 16-6.7 24.6-6 25 .8.5 100.7.5 130.2 0 15.6-.3 15.7-.3 19.2-3.2 3.8-3.1 7.9-10.7 10.1-18.4 1.6-6 12-40.6 13.6-45.4.7-1.9 1.8-5.5 2.5-8s2.2-7.5 3.3-11.3c4.7-15.1 6.4-20.6 8.7-28.7 2.7-9.1 3.7-12.6 7.7-26 1.4-4.7 5-16.8 8.1-27 3-10.2 7.2-24.4 9.4-31.7 3.5-11.7 3.8-13.3 2.3-14-.9-.4-58.5-.9-128.1-.9-69.6-.1-141.1-.3-159-.5-28.7-.2-47.1.4-49.1 1.7-.4.2-2.4.6-4.5 1-14.3 2.1-37.6 11-52.7 20-15 9-36.4 27.4-44.6 38.4-1.4 1.9-3.1 4.1-3.8 4.8-1.8 1.9-11.7 17.1-14.7 22.6-4.1 7.4-11.4 25-13.5 32.5-1.1 3.6-8 27.3-15.4 52.6s-15.6 53.2-18.2 62c-2.6 8.8-5.8 19.8-7.2 24.5-5.4 18.6-7.6 26.1-11.8 40.5-8.1 27.7-40.5 137.9-42.7 145-1.2 3.8-2.3 7.5-2.4 8.2-.1.7-.9 3.4-1.7 6-.8 2.6-2.2 7.5-3.2 10.8-.9 3.3-2.3 7.8-3 10-.8 2.2-3.5 11.2-6.1 20-2.5 8.8-7.2 24.8-10.4 35.5s-7.5 25.1-9.5 32c-2 6.9-4.1 13.8-4.7 15.5-1.9 6.2-2.2 8.2-2.2 16 0 9.9 2.4 15.6 11.7 27.2 3.6 4.3 11.5 15.3 17.7 24.4 17.5 25.6 22.1 31.7 31 41.2 13.2 14.2 28.2 22.3 45.4 24.4 11.3 1.4 35.5.9 58.1-1.2 12.7-1.2 26.2-1.4 84-1.6 34.1 0 64.7-.5 68-.9 11.1-1.5 14.8-2.1 24.2-4.5 45.9-11.7 84.4-45.1 103.7-90.3 2.7-6.4 12.5-35.1 14.2-41.7.2-.6 3.7-12 7.9-25.5 7.2-23.1 11-35.6 14-46 .7-2.5 2.5-8.4 3.9-13.3 4.3-14.6 7.5-25.5 11.8-40.2 6.5-22.9 10.2-28.7 19.9-31.6 3.3-1 34.1-1 334.8-.6 117.3.1 117.5.1 123.9 2.3 3.5 1.1 7.4 3.2 8.7 4.5 2.8 2.9 10.9 23.8 37.8 98.4 6.4 17.6 15.9 43.9 21.2 58.5 5.3 14.6 9.7 26.9 9.8 27.4.2 1-45.2 19.6-60.8 25-7.8 2.8-74.2 25.4-100 34.1-7.1 2.4-20.2 6.9-29 9.9-23.1 7.9-62.8 21.4-94.5 32.1-57.6 19.5-137.6 46.7-194.5 66.1-12.1 4.1-37.1 12.6-55.5 18.9-18.4 6.2-56.2 19.1-84 28.5-27.8 9.5-53.2 18.1-56.5 19.2-3.3 1.1-6.7 2.2-7.5 2.5-.8.3-1.9.7-2.5.9-.5.1-16.3 5.5-35 11.9s-42.8 14.6-53.5 18.2c-10.7 3.6-22.3 7.6-25.7 8.9-3.5 1.3-6.3 2.1-6.3 1.8 0-.2-.9 0-2 .6-1.8 1-61 21.4-65 22.5-.8.2-11.4 3.8-23.5 8s-24 8.2-26.5 9c-2.5.7-15.1 5-28 9.5-12.9 4.4-28 9.6-33.5 11.5-14.1 4.7-78.7 26.9-92.5 31.6-6.3 2.2-14.6 5.1-18.5 6.4-3.8 1.3-14.2 4.9-23 8-8.8 3.1-17.1 6-18.5 6.5-3.2.9-24.5 8.4-33 11.5-3.6 1.3-14.8 5.3-25 8.8-42.8 15-155.7 55.4-159.8 57.2-1.8.8-3.7 1.5-4.2 1.5s-2.1.5-3.7 1.2c-1.5.6-3 1.2-3.3 1.2-.3.1-2.5.9-5 1.8-7.4 2.8-22.2 6.9-27 7.4-2.5.3-5.6.7-7 1-3.2.5-19.7.6-23 0-1.4-.2-4.7-.8-7.5-1.2-2.7-.4-5.2-.8-5.5-.9-7.7-1.8-11.7-2.9-12.5-3.4-.5-.3-5.9-2.2-12-4.2-6-2-27-9.2-46.5-15.9-19.5-6.7-40-13.7-45.5-15.5-83.8-28.3-196-66.6-273-93.3-10.4-3.6-23.3-8-28.5-9.8-18.6-6.3-47.9-16.4-72.5-24.9-13.7-4.8-28.8-10-33.5-11.6-4.7-1.5-11.9-4-16-5.5-4.1-1.4-15.1-5.2-24.5-8.4-9.3-3.2-21.7-7.5-27.5-9.5-10.3-3.6-43.9-15.2-81-27.9-10.2-3.5-29.7-10.3-43.5-15.1-13.7-4.8-25.9-8.9-27-9.2-1.1-.2-2.9-.8-4-1.3s-3.6-1.4-5.5-2c-1.9-.6-15.2-5.2-29.5-10.2-14.3-4.9-33-11.4-41.5-14.3-22.4-7.7-44-15.2-72.5-25-13.7-4.8-31.3-10.8-39-13.5-7.7-2.6-27.3-9.4-43.5-15s-37.8-13-48-16.5c-10.2-3.5-23.2-8-29-10-12.7-4.5-56-19.4-79.5-27.5-9.3-3.2-29.6-10.2-45-15.5-15.4-5.3-41-14.2-57-19.7-15.9-5.5-34.6-11.9-41.5-14.3-6.9-2.3-25-8.6-40.3-13.9-24.7-8.5-69.5-25.1-70.5-26-.5-.6 13.7-42.2 24.6-72.1 2.2-6.1 6.6-18.2 9.7-27 3.1-8.8 5.9-16.7 6.3-17.5.3-.8.6-1.7.7-2 .1-.3.5-1.2.8-2 .4-.8 2.9-8 5.7-16 2.8-8 6.5-18.3 8.1-23 1.7-4.7 3.1-9 3.3-9.5 1.1-5.5 5.6-14.6 9.1-18.1 7.5-7.4-31.8-6.8 370.5-6 74 .1 135.4.5 136.5.9 1.1.3 2.5.6 3.2.6.8.1 1.1 1.3.8 3.3-.2 1.8-.6 6-1 9.3-3 29-13.2 68.2-25 96.7-4.4 10.5-5.5 12.7-12.6 27.3-6.7 13.7-9.5 18.9-16.6 31-7.8 13.2-23.4 36.8-31.8 48-11.7 15.7-25.2 32.8-36.8 46.5-4 4.8-20.2 23.4-22.5 25.9-1.2 1.3-2 2.6-1.8 2.8 1.4 1.4 26.5 1.8 119.6 1.8h104.5l10.5-2.3c27.2-5.9 42.8-13.9 59.6-30.6 12.7-12.8 21.9-27.1 30.3-47.6 2.4-5.8 4.7-11.4 5.2-12.5.6-1.5 11.7-35.3 15.4-47.3.4-.9-5.7-1.2-27.9-1.2h-28.3l6.4-22.3c3.6-12.2 7.1-24.3 7.9-27 3.2-10.7 4.5-15.3 4.9-16.7.2-.8 3.8-13.2 8-27.5s7.8-26.7 8-27.5c.3-.8 1.8-6 3.5-11.5 1.6-5.5 3.2-10.9 3.5-12 .2-1.1 2.9-10.3 5.9-20.5 6.2-21 12.6-42.8 19.8-67.5 2.7-9.4 7.2-24.7 10-34 2.7-9.4 5.6-19.5 6.4-22.5.8-3 2.3-8.2 3.4-11.5 1-3.3 2.8-9.2 3.9-13 1.1-3.9 7.4-25.5 14-48 6.6-22.6 12.9-44.2 14-48 1-3.9 3.3-11.7 5.1-17.5 5.7-19.4 17.1-58.2 30.5-104.5 4.8-16.5 9.3-31.9 10.1-34.3.8-2.3 1.4-4.7 1.4-5.2 0-.7-24.9-1-69.7-1-38.4 0-76.1-.1-83.8-.3-7.7-.1-15.6.1-17.5.5-1.9.4-4.6 1-6 1.3-3.7.7-18 8.1-21.9 11.2-6.7 5.6-10.1 9.2-23.1 24.8-15.2 18.3-27.1 31.9-65.7 75.4l-27.2 30.6 45.9.3c25.3.1 46 .4 46 .6 0 .2-2.7 10.3-6.1 22.3-3.3 12-6.2 22.6-6.4 23.6-.2.9-.6 2.1-.9 2.5-.2.4-1.6 5-3 10.2-6.5 24.7-29.4 102.7-38.7 132.2-4.4 14-7.4 18.9-14.7 24.2l-4.4 3.1-15.6.3c-8.7.1-118.7.4-244.7.5-196.8.2-229.7 0-234.3-1.2-4.1-1.1-5.1-1.8-4.7-3 .4-.9 3.5-9.9 7-20.1 7.2-21.2 11.1-32 33.8-95.5 9.1-25.3 20.6-57.9 25.6-72.5 11.3-32.4 12.7-36.1 16.4-43 9.3-17.2 22.2-28.9 43.2-39 5-2.3 16-7.6 24.5-11.8 8.5-4.1 18.7-8.9 22.5-10.7 3.9-1.8 13.3-6.3 21-10 27.2-13.1 58.4-28 71-34 5-2.3 14.4-6.8 21-10s16.5-7.9 22-10.5c5.5-2.6 16.1-7.7 23.5-11.3 25.1-12 37.5-17.9 46.5-22.2 5-2.4 15.8-7.5 24-11.5 8.3-4 19.1-9.1 24-11.5 5-2.3 14.7-7 21.8-10.4 31.6-15.2 38.9-18.7 49.2-23.6 27.7-13.2 32.9-15.7 46-22 7.7-3.7 18.5-8.9 24-11.5 5.5-2.6 15.2-7.2 21.5-10.3 21.2-10.1 37.4-17.9 47.5-22.7 9.2-4.4 24.2-11.6 50-24 13.8-6.6 34-16.3 46.5-22.3 5.8-2.7 16.4-7.8 23.5-11.2 7.2-3.4 17.5-8.4 23-11 5.5-2.6 18.7-9 29.4-14.1 10.7-5.2 19.5-9.4 19.6-9.4.2 0 11-5.2 24-11.5s23.8-11.5 24-11.5c.2 0 9.7-4.5 21.2-10.1 21.1-10.3 33.9-16.4 51.8-24.9 12.4-5.9 30.3-14.5 50-24 8.3-4 18.4-8.8 22.5-10.7 4.1-2 14.5-6.9 23-11.1 8.5-4.1 19.6-9.4 24.5-11.7 5-2.4 16-7.6 24.5-11.7 27.7-13.4 61.1-29.4 74.5-35.8 9.9-4.7 26.8-12.8 52-25 7.2-3.4 18.1-8.7 24.3-11.6 24.1-11.5 34.2-16.4 47.7-22.9 7.7-3.8 16.6-7.8 19.9-9 7.2-2.7 16-3.1 23.1-1.1zm682.1 900.4c-.3.9-2.4 8-4.7 15.7-2.3 7.7-5.7 19.2-7.6 25.5-1.9 6.3-3.6 12.2-3.8 13-.7 2.6-14.2 46.9-19 62.5-2.6 8.2-5.2 16.4-5.7 18.2-1.3 4.6-5.1 8.8-10.5 11.4-4.5 2.2-5.3 2.2-46.9 2.4-23.3 0-42.8-.1-43.3-.4-.9-.6 17.5-68.2 27.9-102.6 2.8-9.4 5.8-19.7 6.6-23 2.2-9 5.3-17.8 6.9-19.8 3.1-4.2 6.8-4.5 54.8-4.6 42.7 0 45.8.1 45.3 1.7z"/><path d="M1388.8 1386.5c-1.3 1.2-53.9 1.9-138.3 2-54.4.1-100.3.4-102 .9-7.9 1.9-32.4 15.9-46.1 26.2-8.4 6.3-25.8 23-31.5 30.4-3.1 3.9-8.6 12-12.6 18.5-7.3 11.8-13.9 29.6-27.8 75.5-9.6 31.4-32.4 112.2-33.9 120.1-.2 1.3-.9 4.5-1.5 7.1-3.5 15.1-3.3 32.2.6 44.3 4.1 13.1 14.2 25.8 27.1 34.2l6.3 4-14.9 8.1c-43.3 23.5-55.1 34.6-67.5 63.2-3.1 7.2-7.2 20.5-17.7 56.5-5.9 20.3-13.9 46-17.8 57-8.7 24.8-11.4 36.1-11.4 48-.1 8.8 2.2 20.6 4.4 23.2.6.7.8 1.3.4 1.3-.8 0 4.7 10 9.9 17.8 4.1 6.3 16.2 21.1 28.2 34.8 2.8 3.2 6.9 8.1 9 10.9 2.1 2.7 4.8 6.1 6.1 7.5 1.3 1.4 3.6 4.8 5.3 7.6 3.4 6 9.4 11.7 14.2 13.8 6.3 2.6 12.1 2.9 44.2 2.6 43.1-.4 160.7-.3 193.5.1 14.6.2 28.8.1 31.7-.3 42-6.1 67.8-28.6 95.6-83.3 12.6-24.9 21.1-47.7 36.2-97.5 3.1-10.2 5.8-19 5.9-19.5 1.2-4.4 3.5-12.4 7.7-26.5 2.8-9.1 5.2-17.2 5.3-18 .2-.8 1.1-4.2 1.9-7.5 1.4-5.4 2.1-9.1 3.3-16.5.2-1.4.4-7.5.4-13.5.1-26.8-11-48.1-36.3-69.2l-7.8-6.5 2.7-1.4c1.4-.8 3.1-1.4 3.6-1.4 1.8 0 21.1-10 27.2-14.1 23.4-15.8 41.3-37 55.3-65.4 1.9-3.9 3.9-7.8 4.4-8.8 3.8-7 14.6-38 18.9-54.4 5-18.9 9.8-33.8 13.5-41.7 4.2-9.1 9.2-24 10-29.8.3-2.4.8-5.1 1.1-6 .3-.9.5-5 .6-9 .2-23.9-7-40.5-26.8-61.9-4.9-5.2-9.5-10.9-10.3-12.5-2.3-5-2.7-5.7-6.1-11.9-12.9-23.2-30.1-36.1-51-38.1-11.6-1.1-12.9-1.2-13.2-.9zm-82.9 155.2c-1.1 3.7-2.6 9-3.4 11.8-.7 2.7-3 10.6-5 17.5-2.1 6.9-3.8 12.9-3.9 13.5-.2.5-1.1 3.7-2 7-1 3.3-4.7 15.7-8.1 27.5-3.5 11.8-8 26.9-10 33.5-2 6.6-4.5 14.9-5.6 18.5-2.6 9.1-3.7 10.8-8.9 13.8l-4.5 2.7-43.8.3c-41.8.3-43.8.2-43.3-1.5 1.2-4.3 3.7-13.2 4.1-14.9.3-1.1 1.8-6.6 3.4-12.4 1.6-5.8 4.1-14.6 5.5-19.5 7.7-27.9 17.9-63.6 24.6-86.4 2.8-9.3 5-12.4 11.2-15.5l4.9-2.5 43.4-.1 43.4-.1-2 6.8zm-78.5 274.4c.3.3-1.5 7.2-4 15.4-6.5 21.4-9.4 31.3-10.9 36.5-1.3 4.5-20.4 66.3-24.5 79.3-2.3 7.1-5.1 10.2-11.5 12.8-2.1.8-15.6 1.2-46.8 1.3l-43.8.2.6-2.4c.6-2.4 8.5-30 19.1-66.7 3-10.5 6.9-23.5 8.6-28.9 1.6-5.4 3.1-10.4 3.2-11 .4-1.8 4.6-15.7 6.3-20.6 2.6-7.6 3.6-9.1 8.2-12.2 3.8-2.7 5.5-3.1 12.5-3.5 4.4-.3 8.2-.6 8.3-.7.4-.4 74.3.1 74.7.5zM1572.5 1388.1c-2.2.3-5.2 1.1-6.6 1.7-3 1.2-7.7 6.4-9.1 10.1-.7 1.9-16.1 61.5-18.2 70.6-.1.5-.5 1.9-.9 3-.3 1.1-.8 3.1-1.1 4.5-.4 2.3-6.5 25.5-13.7 52-1.7 6.3-3.2 11.9-3.4 12.5-.5 2.2-1.9 7.5-4.2 16-1.4 4.9-2.7 9.9-2.9 11-.2 1.1-1 4.2-1.9 7-2.4 8.3-9.5 35-9.5 36 0 1.2 135 1.3 144 .1 19.4-2.4 25.5-9.6 36.5-42.5 4.9-14.6 8.1-20.3 13.8-24.5 2.8-2 4-2.1 48.3-2.3 25-.2 45.4 0 45.4.4 0 .5-.7 3-1.6 5.8-1.5 4.8-10 33.3-14.9 50-2.6 9-8.3 29.1-9.6 34.5-.5 1.9-1.2 4.4-1.5 5.5-.3 1.1-.7 3-1 4.3-1.7 8.5-5.9 16.5-10.5 20.1-6 4.7-7.5 4.7-88.6 4.5l-76.3-.1-1.1 4.1c-.5 2.2-1.9 7.5-3 11.6-1.2 4.1-2.2 8.2-2.4 9.1-.2.9-2.2 8.2-4.4 16.1-2.2 8-5.9 21.4-8.1 29.9-2.3 8.5-4.8 17.9-5.6 20.9-.9 3-1.8 6.4-2 7.5-.2 1.1-2.4 9.2-4.8 18s-4 16.2-3.6 16.5c.5.3 38 .5 83.4.4 45.4 0 82.6.3 82.6.7 0 .5-3.1 11.8-6.9 25.1-3.8 13.4-11 38.9-16.1 56.8-5 17.9-10.4 36.8-11.9 42-1.6 5.2-3.9 13.1-5.2 17.5-2.8 9.3-7.6 15-13.6 16.1-2 .4-23.2.7-47.2.8-35.6.1-43.5-.1-43.3-1.2.1-.8 1.6-6.4 3.3-12.5 1.7-6.2 3.2-11.9 3.4-12.7.8-3.2 5.6-21.1 9.3-34.5 2.2-7.7 3.7-14.3 3.6-14.6-.2-.4-26.6-.7-58.6-.7-32.1 0-67.7-.1-79.3-.2-23.7-.2-27.9.7-32.8 7.2-2.4 3-7.1 12.8-6.3 12.8.2 0-.3 2.1-1.1 4.7-1.7 5.7-8.9 30.7-10.8 37.8-.7 2.7-2.7 9.7-4.5 15.5-1.8 5.8-3.3 11.2-3.5 12-.4 1.8-12.4 42.5-16.5 56-7.8 25.8-15.9 55-16.4 58.7-.3 2.4-.8 6.1-1.1 8.3l-.6 3.9 153.8.1c84.6 0 165.3.1 179.3.2 14 .2 28.3-.1 31.8-.5 24-2.9 44.6-12.5 61.5-28.6 15.8-15 35.5-47.6 49.2-81.1 10.3-25.4 31.1-91.8 41.1-131 9-35.7 8.7-60.1-.9-79.5-7.1-14.4-14.6-22.2-35.1-36.8-1.8-1.2-1.5-1.5 3-3.2 43.3-16.3 74.1-49.1 93.7-100 5.1-13.4 12.6-36.1 14.2-43.2.2-1 1.6-6.1 3-11.3 1.5-5.2 4-14.9 5.6-21.5 1.6-6.6 3.4-13.6 3.9-15.5 4.4-16 10-42.1 10-46.8 0-6.3-2-11.3-8.8-22.5-2.3-3.7-4.2-7.2-4.2-7.7 0-.6-.4-1-1-1-.5 0-1-.5-1-1 0-1.5-20.2-34.2-33.1-53.5-13.4-20.3-18-24.4-30.9-27.9-4.4-1.2-14-1.3-264-2-30 0-56.3.2-58.5.5z"/></svg>