<?xml version="1.0" standalone="no"?>
<!DOCTYPE svg PUBLIC "-//W3C//DTD SVG 20010904//EN"
 "http://www.w3.org/TR/2001/REC-SVG-20010904/DTD/svg10.dtd">
<svg version="1.0" xmlns="http://www.w3.org/2000/svg"
 width="2288.000000pt" height="347.000000pt" viewBox="0 0 2288.000000 347.000000"
 preserveAspectRatio="xMidYMid meet">
<metadata>
Created by potrace 1.15, written by Peter Selinger 2001-2017
</metadata>
<g transform="translate(0.000000,347.000000) scale(0.100000,-0.100000)"
fill="#000000" stroke="none">
<path d="M2332 608 l2 -263 6 254 5 254 68 -102 67 -101 74 0 c84 0 76 -6 165
124 l61 90 0 -262 c0 -143 3 -263 8 -265 4 -3 6 116 4 265 -1 158 -6 268 -12
266 -5 -2 -40 -48 -78 -103 l-68 -100 -68 -3 c-82 -4 -83 -3 -163 119 -32 49
-61 89 -65 89 -5 0 -7 -118 -6 -262z"/>
</g>
</svg>
