<svg version="1" xmlns="http://www.w3.org/2000/svg" width="1969.333" height="1969.333"
     viewBox="0 0 1477.000000 1477.000000">
    <path d="M736.5 3c-8.7 16.9-70.2 37-163.5 53.5-64.6 11.4-134.6 33.5-198.4 62.4-9.7 4.4-38 18.3-62.9 30.9-24.9 12.5-50 24.6-55.8 26.9-19.5 7.7-56.2 16.7-72.9 18-4.4.3-8 1.1-8 1.6 0 .6 4.5 16.8 9.9 36.1 42.8 151 77.7 299.4 95 403.6 7.5 45.3 11 74.9 15.5 132 7.9 97.7 9.1 174.2 4 248-2.1 28.9-2.3 67.1-.6 80 2.8 20.7 9.9 50 15.6 64.1 11 27.3 37.6 56.4 81.1 88.7 27.2 20.2 54.5 37.4 114.5 72.2 39 22.6 54.7 32 65.5 39.3 12.7 8.6 51 36.5 97.5 71.2 56.6 42.2 61.3 45.5 65.6 45.5 4.4 0 9.6-3.6 64.4-44.4 99.8-74.5 96.5-72.2 179-120.1 77.3-44.9 118.3-74.1 148.6-105.8 13-13.6 22.7-26.8 28.8-39.2 5.3-10.7 6.5-14.3 11.6-34 9.2-35.2 10.7-59.4 7-115.5-5.6-86.5-2.9-185.9 8-296.9 11.2-112.6 52.1-299.4 109.4-499.5 3.6-12.6 6.6-23.7 6.6-24.6 0-1.4-1.4-1.8-8.2-2.4-17.1-1.4-53.6-10.5-73.2-18.2-5-2-26.6-12.5-48.1-23.3-21.4-10.9-46.4-23.3-55.5-27.5-71.9-33.9-139.3-55.7-215.7-69.7-77.2-14.1-126.5-28.1-148.5-42.1-6.2-4-12.8-10.4-12.8-12.5 0-2.3-1.9-1.4-3.5 1.7zm26.2 87.5c10.8 15.4 22.4 31.9 25.7 36.6l5.9 8.6 9.1 3.8c27.4 11.5 60.6 29.8 89.1 49.3 86.7 59.1 135 132.8 138.2 211l.6 14.3-5.4-2.4c-7-3.2-76.8-35.7-87.9-40.9-4.7-2.2-11.2-5.3-14.5-6.8-3.3-1.5-8.9-4.1-12.5-5.7-11.2-5.2-136.3-63.4-159.9-74.4l-12.3-5.7-6.2 2.8c-9.9 4.5-101.2 46.8-111.5 51.6-5.1 2.4-9.5 4.4-9.6 4.4-.2 0-4.8 2.1-10.2 4.6-8.2 3.9-38.6 18-70.8 32.9-21.4 9.9-59.8 27.7-71.5 33.1-7.4 3.4-13.9 5.8-14.3 5.4-1.5-1.3-1.5-22.9-.1-33.8 7.9-60.5 50.1-121.9 120.1-174.3 30.5-22.8 67.6-45.2 106.3-64l10.5-5.1 10-14c5.5-7.7 10.6-14.7 11.2-15.6 4.7-6.4 9.6-13.1 21.8-30.1l13.9-19.3 2.3 2.8c1.3 1.6 11.2 15.5 22 30.9zm-2.6 242.1c11.2 5.3 23.1 10.8 26.4 12.4 12.5 5.8 21.3 9.9 31.5 14.8 5.8 2.7 13.7 6.4 17.5 8.2 3.9 1.8 52.7 24.7 108.5 51 55.8 26.2 116.1 54.6 134 63l32.6 15.3 1.7 4.1c1.9 4.8 52.7 144.6 52.7 145.1 0 .2-1.5.8-3.2 1.4-1.8.5-50.3 16.7-107.8 36.1-112.5 37.8-200.6 67.4-270.2 90.8L740 789.5l-44.2-14.9c-61.3-20.5-152.1-51.1-222.8-74.8-32.7-11-81.5-27.4-108.4-36.4-26.9-9-49.1-16.6-49.3-16.8-.2-.2.3-2.1 1.1-4.2.8-2.2 4.5-12.2 8.1-22.4 3.7-10.2 10.9-30 16-44 8.8-24 25.6-70.3 27.7-76.1.7-1.9 2.6-3.4 6.7-5.3 3.2-1.4 11-5 17.2-8 6.3-2.9 29.9-14 52.4-24.5 22.6-10.5 41.8-19.6 42.8-20.1.9-.6 7.9-3.9 15.5-7.4 7.5-3.5 19.1-9 25.7-12.1 6.6-3.1 14.7-7 18-8.5 8.5-3.9 19.3-9 32-15 6.1-2.9 13.7-6.5 17-8 7.8-3.6 72.7-34.1 87-40.9 23.7-11.2 57-26.9 57.1-27 0-.1 9.2 4.2 20.5 9.5zm-361.3 40.6c-8.8 27.8-11.3 44.8-9.5 64.6.2 2-2.4 3.4-25.7 14l-25.9 11.7-9.1 25.7c-5 14.2-9.5 25.8-10 25.8-2.1 0-14.1-15.2-17.8-22.5-4.1-8-5.8-15.2-5.8-24.3 0-21.7 14.6-44.4 42.5-66 4.4-3.4 8.5-6.7 9.2-7.2 2.1-1.7 17.6-11.5 24.8-15.7 7.3-4.3 28.5-15.2 29.6-15.3.4 0-.7 4.2-2.3 9.2zm689.5-2.5c32.7 16.5 59.5 36.3 74.7 54.9 13.4 16.3 18.6 29.9 17.7 45.9-.6 10.9-3 17.8-9.7 27.8-4.6 6.9-13.5 16.6-14.3 15.6-.3-.2-4.4-11.5-9.2-25-4.8-13.6-9-25.1-9.4-25.7-.3-.6-12.1-6.3-26.1-12.6-23.1-10.5-25.5-11.8-25.3-13.8.9-7.7.3-22.7-1.2-31.3-1.7-9.9-7.1-30.4-10-37.8-1.7-4.1-1.8-4.7-.9-4.7.3 0 6.5 3 13.7 6.7zM399.6 708c11.5 4.5 23.2 8.9 25.9 9.9 2.8 1 63.1 24 134 51.1 71 27.1 133.5 50.9 139 53 5.5 2.1 12.9 4.9 16.5 6.3 3.6 1.4 10.2 3.9 14.7 5.6l8.3 3.1 52.7-20.1c29.1-11 79.4-30.2 111.8-42.6 32.5-12.3 61.7-23.5 65-24.8 3.3-1.3 31.4-12 62.5-23.8s58.9-22.5 61.8-23.6c3.7-1.5 5.3-1.7 5-.9-.4 1.2-8.9 7.2-56.3 39.6-7.1 4.8-20.9 14.2-30.5 20.8-15.5 10.6-92.3 63.3-176 120.6-15.7 10.7-43.7 29.9-62.3 42.6L737.9 948l-13.4-9.3c-7.4-5-18.4-12.6-24.5-16.7-6-4.1-14.7-10.1-19.3-13.2-4.5-3.2-8.9-6.2-9.7-6.8-.8-.5-13.2-9-27.5-18.8S611 861 603 855.5c-8-5.4-17.2-11.7-20.5-14-19.7-13.6-24.4-16.8-75-51.4-10.4-7.1-28-19.1-39-26.7-31.9-21.9-47.6-32.6-69.7-47.7-17.8-12.1-22.4-15.7-20.4-15.7.2 0 9.7 3.6 21.2 8zm259 289c18.8 2.4 33.1 8.5 42.9 18.4 10.5 10.5 14.5 22 14.5 41.6 0 18.5-2.5 25.4-13.7 37.1l-5.4 5.7 5.6 5.6c5.8 6 12.7 18.7 14 26.1 2.3 12.4.7 30.9-3.4 41.4-7.6 19.1-27 32.1-54.6 36.5-10.2 1.6-32.5 1.9-43 .5-40.2-5.4-61.5-27.6-61.5-63.9 0-17.1 4.4-29 14.9-40.3l6-6.3-4-3.5c-5.4-4.7-11.6-14.2-13.6-20.9-2.2-7.5-2.2-28.2 0-36.8 6.7-25.3 28-39.6 62.7-41.8 5.2-.4 9.6-.8 9.8-.9.6-.5 21.5.6 28.8 1.5zm180.9-.5c35.2 2.3 55 16.4 60 42.8 4.9 25.7-2.7 47.4-20.7 59.5-2.1 1.3-3.8 2.6-3.8 2.7 0 .2 1.9 1.4 4.3 2.8 5.4 3.2 12.8 11.1 15.7 16.6 8 15.7 7.8 42.3-.3 59.1-3.1 6.3-13.4 18-15.9 18-.6 0-1.9.6-2.7 1.4-2.7 2.3-15.1 6.8-24.6 8.8-11.8 2.5-38 3.2-52.5 1.3-24.8-3.2-45.6-9-49-13.6-.3-.4-.5-8.8-.5-18.8 0-21.9-.2-21.5 10.7-21.2 4 .1 8.7.4 10.3.7 1.7.2 14.3.7 28 1.1 23.8.6 25.3.5 29.7-1.5 6.3-2.7 8.3-6.1 8.3-13.7 0-7-2.1-11.3-6.9-14.1-2.8-1.7-5.8-1.8-31.8-1.9-22.1-.1-29-.4-30.2-1.4-2.4-2-2.4-42.2 0-44.5 1.3-1.4 5.2-1.6 27.6-1.6 28.4 0 32.3-.5 36.6-5.2 7.2-7.6 5.9-18.1-2.9-23.3-3-1.8-5.2-2-17.9-2-14.2 0-34.4.9-46.8 2.1-7.8.8-10.6.1-11.8-2.8-.8-1.7-1.2-32.6-.5-37 .2-1.5 8.8-5.2 18.1-7.9 11.9-3.4 26.2-5.8 40-6.7 10.7-.8 13.7-.7 29.5.3zm188.5-.4c18.4.4 49.5 6.6 53.5 10.5 2.2 2.3 2.2 42.6 0 44.4-1.6 1.3-8.2 1-24.3-1-11.6-1.5-36-2.1-41.7-1-9.3 1.8-13.5 7.1-14.3 17.8l-.4 6.7 10.8-1c31-2.9 56.8 4.8 68.8 20.4 8.8 11.7 12.6 24.4 12.6 43 0 35-15.1 59.4-43.1 69.5-11.1 4-19.3 5.1-36.9 5-14.2-.1-17.8-.5-26.1-2.7-21.4-5.6-35.7-17.2-44.1-35.6-6.1-13.4-6.7-19-6.8-67.1 0-51.6.3-54.9 8-70.6 7-14.2 15.6-22.7 30.6-30.2 9.9-5.1 30.1-9.2 41.4-8.6 1.9.2 7.3.3 12 .5zm-525.9 4.7c1.7 2.2 1.8 6.7 1.8 102.8.1 98.8 0 100.5-1.9 102.4-1.9 1.9-3.4 2-31.9 2-26.5 0-30-.2-31.2-1.7-1.2-1.3-1.5-14.3-1.9-71.8l-.5-70.2-15.9 6.1c-14.1 5.3-16 5.8-17 4.4-1.4-1.9-1.4-52.4 0-53.8 1.4-1.3 49.7-21.8 52.5-22.2 1.3-.1 11.8-.3 23.3-.3 20.4.1 20.9.1 22.7 2.3z"/>
    <path d="M771 553.6c0 93.2.3 169.4.8 169.4.4 0 15.3-4.9 33.2-10.8 17.9-6 39.8-13.3 48.8-16.2l16.3-5.4-.5-10c-.3-5.6-.8-15.5-1.1-22.1-.3-6.6-.8-16.1-1-21-.3-5-.7-14.4-1-21-.3-6.6-.8-16.5-1-22-.6-13-1.3-28-2-43-.3-6.6-.7-16.1-1-21-.2-5-.7-15.5-1-23.5-.3-8-.8-17-1-20-.2-3-.7-13.2-1.1-22.5-.4-9.4-.8-18.4-.9-20-.2-1.7-.3-4.9-.4-7.1l-.1-4.2-43.5-24.5-43.5-24.5v169.4zM665.2 408.9c-23.2 13.1-42.4 24-42.6 24.2-.5.4-1.5 19-3.1 55.4-.3 7.1-.8 16.4-1 20.5-.2 4.1-.7 14.2-1 22.5-.3 8.2-.8 17.9-1 21.5-.3 3.6-.7 12.8-1 20.5-.3 7.7-.8 17.4-1 21.5-.2 4.1-.7 13.6-1 21-.3 7.4-.8 17.5-1 22.5-.2 4.9-.7 14.4-1 21-.3 6.6-.8 16.3-1.1 21.5l-.6 9.6 9.4 3.1c36.3 12.1 88.7 29.3 89.2 29.3.3 0 .6-76.1.6-169 0-93-.3-169-.7-169-.5 0-19.8 10.8-43.1 23.9zM512 493.8l-34.5 18.7-4.2 26.5c-2.3 14.6-4.4 28.1-4.7 30.1-.3 2-1.6 10.5-3 19-7.7 47.9-8.7 55.2-7.9 55.8.9.8 75.9 24.3 78.2 24.5 1.6.1 1.6 0 2.5-18.4.4-7.4.9-15.8 1.1-18.5.2-2.8.7-10.4 1-17 .3-6.6.7-14.5 1-17.5.2-3 .7-10.5 1-16.5 1-20.1 1.5-29.9 2-36 .2-3.3.7-11.6 1-18.5.3-6.9.8-14.3 1-16.5.2-2.2.7-10.5 1.1-18.5.3-8 .8-14.8 1.1-15.3 1.3-2.1-5.2 1.1-36.7 18.1zM932.4 489.7c.4 8.2.9 16.6 1.1 18.8.2 2.2.6 9.6 1 16.5.3 6.9.8 15.6 1 19.5.8 12.3 1.4 23.7 2 34.5.3 5.8.7 13.4 1 17 .2 3.6.7 12.1 1 19 .4 6.9.8 14.3 1 16.5.2 2.2.7 10.3 1.1 18 .9 19 .9 19 2.5 18.9 2.3-.2 77.3-23.7 78.2-24.5.5-.4-1.7-16.8-4.8-36.5-3.1-19.8-7.8-49.2-10.3-65.4l-4.7-29.5-34.5-18.7c-19-10.3-34.9-18.7-35.4-18.7-.5-.1-.6 6.3-.2 14.6zM626 1045.7c-5.7 4-7.7 8.9-7.4 17.5.4 10.8 5.4 15.3 16.9 15.3 12.3 0 17.5-4.8 17.5-16.2 0-7.3-1.6-11.7-5.5-15.3-2.3-2.2-3.7-2.5-10.8-2.8-6.6-.3-8.7 0-10.7 1.5zM628.5 1123.5c-2 .7-4.5 2.1-5.5 3-3 2.8-4.9 9.8-4.7 17.8.3 8.4 2.4 12.9 7.8 16.5 2.9 2.1 4.4 2.3 10.6 2 11.9-.6 16.7-6.2 16.6-19.4 0-9.5-2.3-15.6-6.8-18.4-4-2.5-12.8-3.2-18-1.5zM1001.4 1116.5c-.3.8-.4 9-.2 18.2.3 13 .7 17.5 2 19.8 2.6 4.8 5.4 6.8 10.6 7.3 4.1.4 5.2 0 8.1-2.4 5.1-4.3 6.4-9.2 6.4-24-.1-11.2-1.3-15.2-5.6-18.2-2.8-1.9-4.6-2.2-12-2.2-6.8 0-8.9.3-9.3 1.5z"/>
</svg>